<svg xmlns="http://www.w3.org/2000/svg" width="45.211" height="65.588" viewBox="0 0 45.211 65.588">
  <g id="svgg" transform="translate(-42.829 -11.757)">
    <path id="path0" d="M61.239,11.776c-1.189.186-1.147.161-1.154.674-.01.683.5,1.222,1.812,1.9.971.506,1.23.884,1.118,1.633-.1.679-.69,1.012-2.116,1.2a6.729,6.729,0,0,0-2.892.853c-2.19,1.44-2.011,5.651.287,6.734,1.04.49,1.309.523,4.149.506,2.562-.015,2.726,0,3.322.3a1.281,1.281,0,0,0,.346.143c0-.043.212.141.546.472.485.482.477.839-.029,1.346-.174.174-.3.335-.281.357s.005.023-.032,0a.94.94,0,0,0-.421.138c-.8.4-.634.387-5.374.4-5.673.015-5.971.051-7.177.865a4.234,4.234,0,0,0-1.368,4.389,3.683,3.683,0,0,0,2.983,2.741c.1.026,4.564.04,9.921.032,11.678-.02,11.45-.031,12.148.607.723.661.886,2.732.263,3.33l-.183.175-5.844.049c-8.984.075-23.635.009-25.115-.113-2.693-.222-3.027-.1-3.216,1.153a83.626,83.626,0,0,0,.119,9.975c.017.132.085,1.188.152,2.345s.148,2.4.181,2.766.114,1.422.179,2.352a22.9,22.9,0,0,0,1.853,8.573c2.076,5.218,6.5,8.907,11.345,9.453a37.27,37.27,0,0,0,9.861-.236,13.806,13.806,0,0,0,9.91-5.99c1.442-2.244,2.166-5,2.687-10.213.068-.678.19-1.855.272-2.616.207-1.92.494-5.048.567-6.163a47.73,47.73,0,0,0,.158-5.351,7.951,7.951,0,0,1,.056-2.306.854.854,0,0,0,.068-.391c-.044-.24.094-.7.21-.7a.4.4,0,0,0,.205-.09c.342-.283,2.4.011,3.221.461,1.546.841,2.134,3.239,1.088,4.428a.488.488,0,0,0-.108.195,4.223,4.223,0,0,1-1.827,1.531c-.406,0-.646,1.993-.317,2.631.511.99,2.828-.04,3.893-1.729,1.49-2.366,1.764-5.276.68-7.215C86.211,41.272,84.6,40.48,81.5,40.48a4.583,4.583,0,0,1-.862-.045.179.179,0,0,0-.11-.045c-.035,0-.072-.041-.082-.09s-.062-.212-.116-.361a7.528,7.528,0,0,1-.179-1.293c-.195-2.472-.772-3.5-2.353-4.2a4.827,4.827,0,0,0-1.284-.345c-.222-.042-3.433-.061-9.771-.059-9.481,0-10.418-.014-11.006-.211-2.256-.757-2.105-2.077.324-2.84l.521-.163H61.3c5.281,0,5.14.01,6.043-.423,2.668-1.279,2.635-5.683-.052-7-.956-.47-1.114-.491-4.1-.543-1.455-.026-2.772-.075-2.927-.109-1.646-.366-1.96-1.984-.526-2.714a4.453,4.453,0,0,1,1.723-.359A4.828,4.828,0,0,0,64.388,18.6a4.5,4.5,0,0,0-.089-5.721,4.479,4.479,0,0,0-3.06-1.1M77.155,43.2c.043.036.078.043.078.015,0-.078.149.091.152.172a4.067,4.067,0,0,0,.135.48c.326,1.008.31,6.44-.021,6.944a.243.243,0,0,0-.048.205c.026.041.015.051-.028.025s-.072.074-.077.366a4.2,4.2,0,0,1-.1,1,1.4,1.4,0,0,0-.035.425.43.43,0,0,1-.062.255,1.8,1.8,0,0,0-.094.718,1.447,1.447,0,0,1-.084.649.3.3,0,0,0-.051.225c.017.065.007.117-.021.117s-.058.115-.065.256a3.6,3.6,0,0,1-.217,1.32c-.061.089-.09.2-.066.235s.019.056-.023.031-.068.018-.068.126c0,.823-.014.891-.136,1.022-.1.111-.119.185-.092.451a2.165,2.165,0,0,1-.209,1.11.869.869,0,0,0-.074.546,10.544,10.544,0,0,1-.737,3.172c-1.558,4.848-4.21,7.625-8.413,8.809-.607.171-1.538.351-3.48.672a16.66,16.66,0,0,1-10.035-2.044,16.271,16.271,0,0,1-4.17-4.67,30.727,30.727,0,0,1-2.691-8.508c-.053-.38-.215-1.476-.36-2.435-.781-5.167-1.061-10.064-.62-10.873a.663.663,0,0,0,.056-.313c-.024-.293.089-.521.248-.5a.38.38,0,0,0,.206-.027c.039-.024,1.243-.017,2.676.016s5.824.079,9.76.1c6.909.038,8.181.026,16.234-.158,2.069-.047,2.408-.038,2.537.07M64.636,46.214A1.8,1.8,0,1,0,66.8,48.389c.09-.481,1-.688,2.221-.5a2.307,2.307,0,0,1,.872.281c.149.069.348.154.443.19a6.465,6.465,0,0,1,2.172,2.168,3.223,3.223,0,0,0,.166.387,5,5,0,0,1-.253,4.272,1.7,1.7,0,0,0-.182.3c-.111.239-10.464,10.612-10.592,10.612-.054,0-1.042-.964-2.195-2.143s-3.449-3.512-5.1-5.186c-2.668-2.7-3.037-3.1-3.27-3.51a4.7,4.7,0,0,1,.776-6.016,3.851,3.851,0,0,1,1.448-1,4.255,4.255,0,0,1,4.035.39A9.154,9.154,0,0,1,59.9,51.469l.1.2-.237.245a2.129,2.129,0,0,1-.4.328,4.89,4.89,0,0,0-1.242,1.921,4.981,4.981,0,0,0,.471,4.269,1.169,1.169,0,0,1,.19.571A1.183,1.183,0,1,0,60.1,57.857c-.42,0-.964-1.2-.961-2.124a3.159,3.159,0,0,1,.357-1.448A5.776,5.776,0,0,1,60.8,52.865a2.54,2.54,0,0,0,.3-.183,3.547,3.547,0,0,1,2.574.007,4.18,4.18,0,0,1,1.3.976,1.677,1.677,0,0,0,.221.3,1.391,1.391,0,0,1,.308,1.59,1.18,1.18,0,1,0,1.746-.135,1.885,1.885,0,0,1-.286-.728,4.558,4.558,0,0,0-2.536-3.135,3.643,3.643,0,0,0-2.035-.409c-1.146-.01-1.158-.016-1.51-.715A2.112,2.112,0,0,0,60.627,50a2.08,2.08,0,0,1-.262-.354,6.325,6.325,0,0,0-8.746-2.023c-2.646,1.65-3.337,5.92-1.426,8.82.424.644.5.727,6.032,6.235L61.4,67.838h.539l5.51-5.517c3.031-3.034,5.578-5.612,5.66-5.727a3.82,3.82,0,0,0,.743-1.654c.5-2.414.536-2.759.382-3.464a6.682,6.682,0,0,0-1.039-2.4,9.882,9.882,0,0,0-1.223-1.256.506.506,0,0,1-.215-.158,1.48,1.48,0,0,0-.386-.27,3.661,3.661,0,0,1-.331-.172,6.94,6.94,0,0,0-4.171-.6c-.369.073-.421.071-.568-.025a2.135,2.135,0,0,0-1.665-.377" transform="translate(0)" fill="#fff" fill-rule="evenodd"/>
  </g>
</svg>
