<svg id="visual" viewBox="0 0 1920 1080" xmlns="http://www.w3.org/2000/svg" xmlns:xlink="http://www.w3.org/1999/xlink" version="1.1">
<path d="M0 131L45.7 129.2C91.3 127.3 182.7 123.7 274.2 125.3C365.7 127 457.3 134 548.8 141.2C640.3 148.3 731.7 155.7 823 157.5C914.3 159.3 1005.7 155.7 1097 150.3C1188.3 145 1279.7 138 1371.2 136.2C1462.7 134.3 1554.3 137.7 1645.8 143C1737.3 148.3 1828.7 155.7 1874.3 159.3L1920 163L1920 0L1874.3 0C1828.7 0 1737.3 0 1645.8 0C1554.3 0 1462.7 0 1371.2 0C1279.7 0 1188.3 0 1097 0C1005.7 0 914.3 0 823 0C731.7 0 640.3 0 548.8 0C457.3 0 365.7 0 274.2 0C182.7 0 91.3 0 45.7 0L0 0Z" fill="#c1b0a9"></path>
<path d="M0 228L45.7 226.2C91.3 224.3 182.7 220.7 274.2 220.7C365.7 220.7 457.3 224.3 548.8 233.3C640.3 242.3 731.7 256.7 823 265.7C914.3 274.7 1005.7 278.3 1097 276.5C1188.3 274.7 1279.7 267.3 1371.2 260.2C1462.7 253 1554.3 246 1645.8 246C1737.3 246 1828.7 253 1874.3 256.5L1920 260L1920 161L1874.3 157.3C1828.7 153.7 1737.3 146.3 1645.8 141C1554.3 135.7 1462.7 132.3 1371.2 134.2C1279.7 136 1188.3 143 1097 148.3C1005.7 153.7 914.3 157.3 823 155.5C731.7 153.7 640.3 146.3 548.8 139.2C457.3 132 365.7 125 274.2 123.3C182.7 121.7 91.3 125.3 45.7 127.2L0 129Z" fill="#a6948e"></path>
<path d="M0 347L45.7 343.3C91.3 339.7 182.7 332.3 274.2 332.3C365.7 332.3 457.3 339.7 548.8 348.7C640.3 357.7 731.7 368.3 823 377.3C914.3 386.3 1005.7 393.7 1097 393.7C1188.3 393.7 1279.7 386.3 1371.2 375.5C1462.7 364.7 1554.3 350.3 1645.8 345C1737.3 339.7 1828.7 343.3 1874.3 345.2L1920 347L1920 258L1874.3 254.5C1828.7 251 1737.3 244 1645.8 244C1554.3 244 1462.7 251 1371.2 258.2C1279.7 265.3 1188.3 272.7 1097 274.5C1005.7 276.3 914.3 272.7 823 263.7C731.7 254.7 640.3 240.3 548.8 231.3C457.3 222.3 365.7 218.7 274.2 218.7C182.7 218.7 91.3 222.3 45.7 224.2L0 226Z" fill="#8c7875"></path>
<path d="M0 552L45.7 541.2C91.3 530.3 182.7 508.7 274.2 499.7C365.7 490.7 457.3 494.3 548.8 503.3C640.3 512.3 731.7 526.7 823 539.2C914.3 551.7 1005.7 562.3 1097 564.2C1188.3 566 1279.7 559 1371.2 550C1462.7 541 1554.3 530 1645.8 528.2C1737.3 526.3 1828.7 533.7 1874.3 537.3L1920 541L1920 345L1874.3 343.2C1828.7 341.3 1737.3 337.7 1645.8 343C1554.3 348.3 1462.7 362.7 1371.2 373.5C1279.7 384.3 1188.3 391.7 1097 391.7C1005.7 391.7 914.3 384.3 823 375.3C731.7 366.3 640.3 355.7 548.8 346.7C457.3 337.7 365.7 330.3 274.2 330.3C182.7 330.3 91.3 337.7 45.7 341.3L0 345Z" fill="#725e5d"></path>
<path d="M0 865L45.7 847C91.3 829 182.7 793 274.2 776.8C365.7 760.7 457.3 764.3 548.8 778.7C640.3 793 731.7 818 823 837.8C914.3 857.7 1005.7 872.3 1097 865.2C1188.3 858 1279.7 829 1371.2 825.3C1462.7 821.7 1554.3 843.3 1645.8 848.8C1737.3 854.3 1828.7 843.7 1874.3 838.3L1920 833L1920 539L1874.3 535.3C1828.7 531.7 1737.3 524.3 1645.8 526.2C1554.3 528 1462.7 539 1371.2 548C1279.7 557 1188.3 564 1097 562.2C1005.7 560.3 914.3 549.7 823 537.2C731.7 524.7 640.3 510.3 548.8 501.3C457.3 492.3 365.7 488.7 274.2 497.7C182.7 506.7 91.3 528.3 45.7 539.2L0 550Z" fill="#594546"></path>
<path d="M0 1081L45.7 1081C91.3 1081 182.7 1081 274.2 1081C365.7 1081 457.3 1081 548.8 1081C640.3 1081 731.7 1081 823 1081C914.3 1081 1005.7 1081 1097 1081C1188.3 1081 1279.7 1081 1371.2 1081C1462.7 1081 1554.3 1081 1645.8 1081C1737.3 1081 1828.7 1081 1874.3 1081L1920 1081L1920 831L1874.3 836.3C1828.7 841.7 1737.3 852.3 1645.8 846.8C1554.3 841.3 1462.7 819.7 1371.2 823.3C1279.7 827 1188.3 856 1097 863.2C1005.7 870.3 914.3 855.7 823 835.8C731.7 816 640.3 791 548.8 776.7C457.3 762.3 365.7 758.7 274.2 774.8C182.7 791 91.3 827 45.7 845L0 863Z" fill="#402d31"></path>
</svg>